<svg xmlns="http://www.w3.org/2000/svg" viewBox="0 0 100 100"><circle cx="14" cy="29" r="2" fill="#ee3e54"></circle><circle cx="78" cy="13" r="1" fill="#f1bc19"></circle><circle cx="51" cy="50" r="37" fill="#fce0a2"></circle><circle cx="84" cy="15" r="4" fill="#f1bc19"></circle><circle cx="88" cy="24" r="2" fill="#ee3e54"></circle><circle cx="82" cy="76" r="2" fill="#fbcd59"></circle><circle cx="16" cy="63" r="4" fill="#fbcd59"></circle><circle cx="26" cy="87" r="2" fill="#ee3e54"></circle><circle cx="19.5" cy="53.5" r="2.5" fill="#fff"></circle><circle cx="22" cy="67" r="1" fill="#f1bc19"></circle><circle cx="81" cy="34" r="1" fill="#fff"></circle><g><path fill="#e1e0d8" d="M67,41v5.864c0,4.502-7.104,6.703-13.975,8.83c-4.258,1.319-8.365,2.6-11.025,4.51V31.5h-3v33.812 c0,0.002,0,0.004,0,0.006V68h0h3h0v-2.686c0.005-3.067,6.058-4.942,11.913-6.755C61.453,56.225,70,53.578,70,46.864V41H67z"></path><path fill="#472b29" d="M42.5,68.5h-4V31h4v28.272c2.738-1.69,6.616-2.891,10.377-4.056 c6.698-2.074,13.623-4.218,13.623-8.352V40.5h4v6.364c0,7.083-8.734,9.787-16.439,12.173c-5.417,1.677-11.556,3.579-11.561,6.278 V68.5z M39.5,67.5h2l0-2.186c0.006-3.436,5.96-5.28,12.265-7.232C61.14,55.798,69.5,53.209,69.5,46.864V41.5h-2v5.364 c0,4.871-7.284,7.127-14.327,9.308c-4.064,1.259-8.266,2.56-10.881,4.439L41.5,61.179V32h-2L39.5,67.5z"></path><circle cx="40.5" cy="30.5" r="4.8" fill="#77cbd2"></circle><path fill="#472b29" d="M40.5,26.4c2.261,0,4.1,1.839,4.1,4.1s-1.839,4.1-4.1,4.1s-4.1-1.839-4.1-4.1 S38.239,26.4,40.5,26.4 M40.5,25c-3.038,0-5.5,2.462-5.5,5.5s2.462,5.5,5.5,5.5s5.5-2.462,5.5-5.5S43.538,25,40.5,25L40.5,25z"></path><path fill="#472b29" d="M40.5,32.75c-1.241,0-2.25-1.009-2.25-2.25s1.009-2.25,2.25-2.25s2.25,1.009,2.25,2.25 S41.741,32.75,40.5,32.75z M40.5,28.75c-0.965,0-1.75,0.785-1.75,1.75s0.785,1.75,1.75,1.75s1.75-0.785,1.75-1.75 S41.465,28.75,40.5,28.75z"></path><circle cx="40.5" cy="71.5" r="4.8" fill="#00a5a5"></circle><path fill="#472b29" d="M40.5,67.4c2.261,0,4.1,1.839,4.1,4.1s-1.839,4.1-4.1,4.1s-4.1-1.839-4.1-4.1 S38.239,67.4,40.5,67.4 M40.5,66c-3.038,0-5.5,2.462-5.5,5.5s2.462,5.5,5.5,5.5s5.5-2.462,5.5-5.5S43.538,66,40.5,66L40.5,66z"></path><circle cx="68.5" cy="37.5" r="4.8" fill="#77cbd2"></circle><path fill="#472b29" d="M68.5,33.4c2.261,0,4.1,1.839,4.1,4.1s-1.839,4.1-4.1,4.1s-4.1-1.839-4.1-4.1 S66.239,33.4,68.5,33.4 M68.5,32c-3.038,0-5.5,2.462-5.5,5.5s2.462,5.5,5.5,5.5s5.5-2.462,5.5-5.5S71.538,32,68.5,32L68.5,32z"></path><path fill="#472b29" d="M68.5,39.75c-1.241,0-2.25-1.009-2.25-2.25s1.009-2.25,2.25-2.25s2.25,1.009,2.25,2.25 S69.741,39.75,68.5,39.75z M68.5,35.75c-0.965,0-1.75,0.785-1.75,1.75s0.785,1.75,1.75,1.75s1.75-0.785,1.75-1.75 S69.465,35.75,68.5,35.75z"></path><path fill="#472b29" d="M40.5,73.75c-1.241,0-2.25-1.009-2.25-2.25s1.009-2.25,2.25-2.25s2.25,1.009,2.25,2.25 S41.741,73.75,40.5,73.75z M40.5,69.75c-0.965,0-1.75,0.785-1.75,1.75s0.785,1.75,1.75,1.75s1.75-0.785,1.75-1.75 S41.465,69.75,40.5,69.75z"></path><g><path fill="#472b29" d="M44.5,40.75c-0.138,0-0.25-0.112-0.25-0.25v-4c0-0.138,0.112-0.25,0.25-0.25s0.25,0.112,0.25,0.25 v4C44.75,40.638,44.638,40.75,44.5,40.75z"></path></g><g><path fill="#472b29" d="M44.5,55.75c-0.138,0-0.25-0.112-0.25-0.25v-12c0-0.138,0.112-0.25,0.25-0.25s0.25,0.112,0.25,0.25 v12C44.75,55.638,44.638,55.75,44.5,55.75z"></path></g><g><path fill="#472b29" d="M64.807,57.989c-0.092,0-0.18-0.051-0.224-0.139c-0.061-0.124-0.011-0.274,0.113-0.335 c3.44-1.703,5.451-3.635,5.978-5.743c0.033-0.134,0.168-0.216,0.303-0.182c0.134,0.034,0.215,0.169,0.182,0.303 c-0.564,2.256-2.664,4.298-6.241,6.069C64.882,57.981,64.845,57.989,64.807,57.989z"></path></g><g><path fill="#472b29" d="M45.917,65.083c-0.064,0-0.128-0.025-0.177-0.074c-0.097-0.098-0.097-0.255,0-0.352 c0.083-0.084,2.141-2.072,10.116-4.066c2.328-0.582,4.435-1.237,6.262-1.947c0.127-0.05,0.273,0.014,0.323,0.142 c0.05,0.129-0.014,0.274-0.143,0.324c-1.846,0.718-3.973,1.379-6.321,1.966c-7.799,1.95-9.865,3.915-9.884,3.935 C46.044,65.059,45.98,65.083,45.917,65.083z"></path></g></g></svg>
